REM DIRINDEX 1\2,1\3,1\4,1\5
REM DIRNAME cjc004,folder01,folder02,folder03,folder04
TITLE ""
FILE "1Q_t_0840-0849.mp3" MP3
  TRACK 01 AUDIO
    TITLE "3:cjc004_3423"
    INDEX 01 00:00:00
  TRACK 02 AUDIO
    TITLE "0:"
    INDEX 01 00:01:22
  TRACK 03 AUDIO
    TITLE "4:cjc004_3424"
    INDEX 01 00:01:50
  TRACK 04 AUDIO
    TITLE "0:"
    INDEX 01 00:03:10
  TRACK 05 AUDIO
    TITLE "5:cjc004_3425"
    INDEX 01 00:03:35
  TRACK 06 AUDIO
    TITLE "0:"
    INDEX 01 00:09:69
  TRACK 07 AUDIO
    TITLE "3:cjc004_3426"
    INDEX 01 00:10:49
  TRACK 08 AUDIO
    TITLE "0:"
    INDEX 01 00:11:70
  TRACK 09 AUDIO
    TITLE "4:cjc004_3427"
    INDEX 01 00:12:20
  TRACK 10 AUDIO
    TITLE "0:"
    INDEX 01 00:13:43
  TRACK 11 AUDIO
    TITLE "5:cjc004_3428"
    INDEX 01 00:13:69
  TRACK 12 AUDIO
    TITLE "0:"
    INDEX 01 00:18:56
  TRACK 13 AUDIO
    TITLE "3:cjc004_3429"
    INDEX 01 00:19:34
  TRACK 14 AUDIO
    TITLE "0:"
    INDEX 01 00:20:47
  TRACK 15 AUDIO
    TITLE "4:cjc004_3430"
    INDEX 01 00:20:73
  TRACK 16 AUDIO
    TITLE "0:"
    INDEX 01 00:22:27
  TRACK 17 AUDIO
    TITLE "5:cjc004_3431"
    INDEX 01 00:22:52
  TRACK 18 AUDIO
    TITLE "0:"
    INDEX 01 00:28:15
  TRACK 19 AUDIO
    TITLE "3:cjc004_3432"
    INDEX 01 00:28:72
  TRACK 20 AUDIO
    TITLE "0:"
    INDEX 01 00:30:01
  TRACK 21 AUDIO
    TITLE "4:cjc004_3433"
    INDEX 01 00:30:32
  TRACK 22 AUDIO
    TITLE "0:"
    INDEX 01 00:32:25
  TRACK 23 AUDIO
    TITLE "5:cjc004_3434"
    INDEX 01 00:32:50
  TRACK 24 AUDIO
    TITLE "0:"
    INDEX 01 00:37:52
  TRACK 25 AUDIO
    TITLE "3:cjc004_3435"
    INDEX 01 00:38:31
  TRACK 26 AUDIO
    TITLE "0:"
    INDEX 01 00:39:52
  TRACK 27 AUDIO
    TITLE "4:cjc004_3436"
    INDEX 01 00:40:05
  TRACK 28 AUDIO
    TITLE "0:"
    INDEX 01 00:41:34
  TRACK 29 AUDIO
    TITLE "5:cjc004_3437"
    INDEX 01 00:41:63
  TRACK 30 AUDIO
    TITLE "0:"
    INDEX 01 00:45:61
  TRACK 31 AUDIO
    TITLE "3:cjc004_3438"
    INDEX 01 00:46:37
  TRACK 32 AUDIO
    TITLE "0:"
    INDEX 01 00:47:40
  TRACK 33 AUDIO
    TITLE "4:cjc004_3439"
    INDEX 01 00:47:68
  TRACK 34 AUDIO
    TITLE "0:"
    INDEX 01 00:49:21
  TRACK 35 AUDIO
    TITLE "5:cjc004_3440"
    INDEX 01 00:49:51
  TRACK 36 AUDIO
    TITLE "0:"
    INDEX 01 00:55:24
  TRACK 37 AUDIO
    TITLE "3:cjc004_3441"
    INDEX 01 00:56:06
  TRACK 38 AUDIO
    TITLE "0:"
    INDEX 01 00:57:19
  TRACK 39 AUDIO
    TITLE "4:cjc004_3442"
    INDEX 01 00:57:48
  TRACK 40 AUDIO
    TITLE "0:"
    INDEX 01 00:58:46
  TRACK 41 AUDIO
    TITLE "5:cjc004_3443"
    INDEX 01 00:59:00
  TRACK 42 AUDIO
    TITLE "0:"
    INDEX 01 01:03:55
  TRACK 43 AUDIO
    TITLE "3:cjc004_3444"
    INDEX 01 01:04:33
  TRACK 44 AUDIO
    TITLE "0:"
    INDEX 01 01:05:52
  TRACK 45 AUDIO
    TITLE "4:cjc004_3445"
    INDEX 01 01:06:10
  TRACK 46 AUDIO
    TITLE "0:"
    INDEX 01 01:07:17
  TRACK 47 AUDIO
    TITLE "5:cjc004_3446"
    INDEX 01 01:07:41
  TRACK 48 AUDIO
    TITLE "0:"
    INDEX 01 01:11:37
  TRACK 49 AUDIO
    TITLE "3:cjc004_3447"
    INDEX 01 01:12:17
  TRACK 50 AUDIO
    TITLE "0:"
    INDEX 01 01:13:18
  TRACK 51 AUDIO
    TITLE "4:cjc004_3448"
    INDEX 01 01:13:42
  TRACK 52 AUDIO
    TITLE "0:"
    INDEX 01 01:14:61
  TRACK 53 AUDIO
    TITLE "5:cjc004_3449"
    INDEX 01 01:15:13
  TRACK 54 AUDIO
    TITLE "0:"
    INDEX 01 01:18:72
  TRACK 55 AUDIO
    TITLE "3:cjc004_3450"
    INDEX 01 01:19:56
  TRACK 56 AUDIO
    TITLE "0:"
    INDEX 01 01:20:73
  TRACK 57 AUDIO
    TITLE "4:cjc004_3451"
    INDEX 01 01:21:27
  TRACK 58 AUDIO
    TITLE "0:"
    INDEX 01 01:22:48
  TRACK 59 AUDIO
    TITLE "5:cjc004_3452"
    INDEX 01 01:22:74
  TRACK 60 AUDIO
    TITLE "0:"
    INDEX 01 01:27:34
